<?xml version="1.0" encoding="iso-8859-1"?>
<!-- Generator: Adobe Illustrator 17.1.0, SVG Export Plug-In . SVG Version: 6.00 Build 0)  -->
<!DOCTYPE svg PUBLIC "-//W3C//DTD SVG 1.1//EN" "http://www.w3.org/Graphics/SVG/1.1/DTD/svg11.dtd">
<svg version="1.1" id="Capa_1" xmlns="http://www.w3.org/2000/svg" xmlns:xlink="http://www.w3.org/1999/xlink" x="0px" y="0px"
	 viewBox="0 0 455.674 455.674" style="enable-background:new 0 0 455.674 455.674;" xml:space="preserve">
<g>
	<path d="M235.118,83.728c3.26,6.935,4.467,14.313,3.885,21.452c-0.061,0.75,1.075,1.307,1.689,0.795
		c7.977-6.644,10.801-18.063,6.178-27.897c-4.586-9.755-15.051-14.86-25.181-13.081c-0.918,0.161-1.187,1.646-0.433,2.179
		C227.047,71.271,231.891,76.863,235.118,83.728z"/>
	<path d="M366.819,421.715l-58.408-53.682c-5.936-5.455-14.854-15.015-19.882-21.31l-55.949-70.052
		c-0.472-0.591-0.974-1.146-1.5-1.669c-0.119-0.166-0.22-0.339-0.345-0.503l-23.048-30.261c-4.093-5.374-6.679-14.628-5.534-19.803
		c1.392-6.287,5.004-17.831,7.888-25.207l9.658-24.693c2.014-5.151,1.705-10.065-0.87-13.837c-2.781-4.075-7.764-6.1-13.722-5.545
		l-20.122,1.869v-12.666c2.724,0.553,5.522,0.84,8.365,0.84c11.117,0,21.568-4.329,29.429-12.189s12.189-18.312,12.189-29.429
		c0-11.118-4.329-21.569-12.189-29.43S204.468,61.96,193.351,61.96c-2.843,0-5.641,0.287-8.365,0.84V15.117
		C184.985,6.641,178.608,0,170.433,0c-3.982,0-7.733,1.566-10.563,4.412c-2.848,2.863-4.404,6.654-4.381,10.671l0.344,70.493
		c-5.49,11.467-5.429,24.94,0.178,36.365l0.185,37.834c-9.93,1.716-18.377,10.38-19.588,20.428l-1.821,15.116
		c-0.995,8.252-2.448,21.685-3.241,29.943l-0.167,1.735c-0.854,8.898,0.398,22.605,2.852,31.205l6.956,24.374
		c0.324,1.137,0.747,2.29,1.248,3.444l-54.647,60.903c-7.264,8.096-6.93,20.953,0.746,28.66l59.95,60.197
		c5.127,5.148,13.053,8.346,20.686,8.346c2.837,0,5.467-0.45,7.815-1.34c4.639-1.756,7.852-5.145,9.046-9.542
		c1.303-4.796-0.058-10.161-3.733-14.721L137.468,362.9c-1.608-1.995-2.291-4.397-1.92-6.763c0.37-2.365,1.752-4.444,3.893-5.854
		l52.675-34.689c0.407-0.015,0.813-0.025,1.217-0.052c0.03,0.026,0.055,0.056,0.085,0.082l66.493,57.701
		c6.176,5.359,15.946,14.397,21.779,20.146l57.261,56.442c3.769,3.714,8.781,5.76,14.115,5.76c5.39,0,10.439-2.082,14.205-5.849
		l0.137-0.137c3.795-3.794,5.822-8.807,5.711-14.113C373.007,430.268,370.77,425.346,366.819,421.715z M139.983,224.498
		c0.712-7.729,2.025-20.358,2.917-28.066l1.646-14.225c0.752-6.496,5.706-12.397,11.688-14.527l0.056,11.437
		c0.046,8.271,6.522,15.001,14.436,15.001c7.863,0,14.26-6.729,14.26-15v-14.678l17.398-1.682c7.424-0.719,11.276,4.61,8.561,11.841
		l-8.727,23.236c-2.715,7.23-6.015,18.22-7.333,24.419c-0.002,0.011-0.003,0.021-0.005,0.032l-55.245,7.66
		c0.028-1.354,0.09-2.645,0.198-3.816L139.983,224.498z M218.047,291.594l-15.406,9.388c-6.435,3.922-17.277,4.557-24.094,1.411
		l-13.889-6.407c-6.817-3.146-14.068-11.827-16.114-19.292l-5.833-21.282l59.598-8.459l19.224,26.282
		C226.05,279.41,224.482,287.672,218.047,291.594z"/>
</g>
<g>
</g>
<g>
</g>
<g>
</g>
<g>
</g>
<g>
</g>
<g>
</g>
<g>
</g>
<g>
</g>
<g>
</g>
<g>
</g>
<g>
</g>
<g>
</g>
<g>
</g>
<g>
</g>
<g>
</g>
</svg>
